<svg width="48" height="48" viewBox="0 0 48 48" fill="none" xmlns="http://www.w3.org/2000/svg">
<g id="ant-design:desktop-outlined">
<g id="Union">
<path d="M19.9252 8.17675L22.8955 10.9252V2.01312L25.514 2V10.9252L28.4842 8.17675L30.4234 10.2723L24.2047 16.0264L17.9861 10.2723L19.9252 8.17675Z" fill="white"/>
<path d="M14.0553 19.2801C14.3052 19.2629 14.557 19.2493 14.8119 19.2399C15.0789 19.2301 15.3494 19.2251 15.624 19.2251C18.7416 19.2251 21.5085 19.8416 23.268 20.799C23.6833 21.0251 24.0422 21.2699 24.3359 21.5296C22.2292 22.2652 21.5877 23.2651 21.2082 24.0911C20.7398 25.1106 21.2082 26.5798 21.2082 26.5798C19.5022 27.1655 17.4152 27.245 15.624 27.245C12.6366 27.245 9.96305 26.6787 8.19755 25.7864C8.10367 25.7364 8.01232 25.6461 7.92449 25.641C6.71569 24.9695 6 24.1372 6 23.235C6 21.4907 8.67804 20.0021 12.416 19.4557C12.9424 19.3755 13.4885 19.3154 14.0553 19.2801Z" fill="white"/>
<path d="M14.5883 32.0341C14.8684 31.2475 15.6972 30.5345 16.9075 29.9665C18.464 29.1554 18.3035 28.7092 17.7605 28.7567C17.066 28.8177 16.3513 28.849 15.624 28.849C12.8071 28.849 10.1826 28.3779 8.20209 27.5509C7.38444 27.21 6.62383 26.789 6 26.2727V28.047C6 28.9495 6.71569 29.7815 7.92449 30.453C9.48509 31.3176 11.8674 31.9124 14.5883 32.0341Z" fill="white"/>
<path d="M14.5005 33.6242C11.9991 33.5417 9.98779 33.1086 8.20209 32.3629C7.38444 32.022 6.62383 31.601 6 31.0847V32.859C6 34.914 9.40837 36.5831 14.186 36.8181L14.5005 33.6242Z" fill="white"/>
<path d="M40.4854 27.7518C41.6932 27.0803 42.4099 26.2485 42.4099 25.3458C42.4099 23.1313 38.0991 21.3358 32.7859 21.3358C27.4278 21.3358 23.162 23.1313 23.162 25.3458C23.162 26.2485 23.8787 27.0803 25.087 27.7518L25.142 27.7818C25.5478 27.7619 25.9541 27.7518 26.37 27.7518C29.1873 27.7518 31.8139 28.2229 33.7934 29.0502C33.9841 29.1302 34.1744 29.2155 34.3551 29.3008C36.856 29.1302 39.0268 28.5588 40.4854 27.7518Z" fill="white"/>
<path d="M26.37 29.3558C26.1751 29.3558 25.9823 29.3586 25.7915 29.3636C25.4564 29.3724 25.1268 29.3886 24.8013 29.411C24.2345 29.4461 23.6884 29.5062 23.162 29.5864C19.424 30.1328 16.746 31.6215 16.746 33.3658C16.746 34.2682 17.4617 35.1002 18.6705 35.7718C18.7583 35.7768 18.8496 35.8672 18.9435 35.9171C20.709 36.8095 23.3825 37.3758 26.37 37.3758C29.5179 37.3758 32.315 36.7444 34.0694 35.7718C34.0765 35.767 34.0841 35.7632 34.0917 35.7594C34.0992 35.7556 34.1068 35.7518 34.1144 35.7468C34.1194 35.7417 34.1295 35.7367 34.1346 35.7367C34.9966 35.2204 35.6583 34.6139 35.889 33.9523C35.9591 33.7617 35.9939 33.5212 35.9939 33.3658C35.9939 32.4484 35.2571 31.6066 34.0139 30.9297C32.2545 29.9723 29.4876 29.3558 26.37 29.3558Z" fill="white"/>
<path d="M40.2094 29.6616C39.107 30.1177 37.8084 30.4687 36.3901 30.6892C37.067 31.3658 37.5979 32.268 37.5979 33.3658C37.5979 33.4079 37.5969 33.4501 37.5949 33.4917L37.5878 33.6315C38.5907 33.391 39.478 33.0801 40.2144 32.7091C41.5832 32.0174 42.4099 31.1253 42.4099 30.1578V28.3834C41.7836 28.8998 41.0265 29.3207 40.2094 29.6616Z" fill="white"/>
<path d="M34.0694 40.584C35.2772 39.9122 35.9939 39.0802 35.9939 38.1778V36.4034C35.9238 36.4587 35.8536 36.5188 35.7784 36.5738C35.6815 36.6454 35.5831 36.7158 35.4822 36.7847L35.3676 36.8615C35.2217 36.9571 35.0718 37.0487 34.9164 37.1353C34.5605 37.3359 34.1845 37.5211 33.7934 37.6816C31.8139 38.5086 29.1873 38.9798 26.37 38.9798C23.5531 38.9798 20.9286 38.5086 18.9481 37.6816C18.1304 37.3407 17.3698 36.9198 16.746 36.4034V38.1778C16.746 39.0802 17.4617 39.9122 18.6705 40.584C20.4264 41.5564 23.222 42.188 26.37 42.188C29.3574 42.188 32.0294 41.6215 33.7984 40.7294C33.8539 40.6983 33.9095 40.6521 33.965 40.6201C33.9998 40.6002 34.0346 40.5858 34.0694 40.584Z" fill="white"/>
<path d="M40.2094 34.4736C39.8783 34.6117 39.5219 34.7318 39.152 34.8433C38.6488 34.9953 38.1208 35.1313 37.5979 35.2756V38.1778C37.5979 38.2681 37.5929 38.3582 37.5878 38.4435C39.4074 38.0074 40.8463 37.3359 41.6635 36.5188C41.7472 36.4347 41.8245 36.3497 41.8941 36.2641C41.938 36.2109 41.9789 36.1571 42.0168 36.1031C42.1263 35.9479 42.2131 35.7907 42.2772 35.6322C42.3655 35.4129 42.4099 35.1913 42.4099 34.9698V33.1954C41.7836 33.7118 41.0265 34.1327 40.2094 34.4736Z" fill="white"/>
<path d="M33.7934 42.4936C31.8139 43.3206 29.1873 43.792 26.37 43.792C23.5531 43.792 20.9286 43.3206 18.9481 42.4936C18.1304 42.1529 17.3698 41.7317 16.746 41.2154V42.99C16.746 45.2055 21.0548 47 26.37 47C31.6831 47 35.9939 45.2055 35.9939 42.99V41.2154C35.845 41.3383 35.6886 41.4557 35.5261 41.568C35.3242 41.707 35.1127 41.8382 34.8926 41.9616C34.7675 42.0321 34.6393 42.1002 34.5091 42.1658C34.2774 42.2824 34.0382 42.3917 33.7934 42.4936Z" fill="white"/>
</g>
</g>
</svg>
