<svg width="48" height="48" viewBox="0 0 48 48" fill="none" xmlns="http://www.w3.org/2000/svg">
<path d="M43.5 7H4.5C3.67031 7 3 7.67031 3 8.5V31.75C3 32.5797 3.67031 33.25 4.5 33.25H22.3125V38.5H14.25C13.8375 38.5 13.5 38.8375 13.5 39.25V41.5C13.5 41.7062 13.6687 41.875 13.875 41.875H34.125C34.3312 41.875 34.5 41.7062 34.5 41.5V39.25C34.5 38.8375 34.1625 38.5 33.75 38.5H25.6875V33.25H43.5C44.3297 33.25 45 32.5797 45 31.75V8.5C45 7.67031 44.3297 7 43.5 7ZM41.625 29.875H6.375V10.375H41.625V29.875Z" fill="white"/>
</svg>
