<svg width="48" height="48" viewBox="0 0 48 48" fill="none" xmlns="http://www.w3.org/2000/svg">
<g id="ant-design:desktop-outlined">
<g id="Union">
<path d="M9 7V40.2138H25.8395C25.4825 39.3536 25.2854 38.4103 25.2854 37.4209C25.2854 37.3516 25.2864 37.2826 25.2883 37.2138H12V10H23.0397L23.0396 19.3938H31.8928V30.1617C32.1178 30.1408 32.3457 30.1301 32.5762 30.1301C33.386 30.1301 34.165 30.2622 34.8928 30.5059V17.5239L24.3689 7H9Z" fill="white"/>
<path d="M20.8292 23.4978H23.8811V34.3838H20.8292V23.4978Z" fill="white"/>
<path d="M17.8607 25.3449H14.8088V34.3839H17.8607V25.3449Z" fill="white"/>
<path d="M39.6109 34.6717L32.5478 41.7349L27.6035 36.7906L29.7225 34.6717L32.5478 37.497L37.492 32.5527L39.6109 34.6717Z" fill="white"/>
</g>
</g>
</svg>
