<svg width="240" height="81" viewBox="0 0 240 81" fill="none" xmlns="http://www.w3.org/2000/svg">
<rect width="240" height="80" transform="translate(0 0.704102)" fill="white"/>
<path d="M65.9475 30.2739C68.2262 30.1261 70.5487 30.5695 72.5864 31.5619C75.61 32.9977 78.0201 35.5738 79.1376 38.6144C79.6415 39.9657 79.9044 41.3804 79.9044 42.8162V48.1162C79.9044 48.3273 79.9044 48.5596 79.8606 48.7708C79.7292 49.2986 79.3347 49.7842 78.8089 50.0165C78.4364 50.1855 78.0201 50.2066 77.6477 50.1432C76.815 49.9954 76.1577 49.2353 76.1577 48.4118C76.1577 46.7648 76.1577 45.1178 76.1577 43.4708C76.1796 43.0063 76.1796 42.4995 75.9168 42.0984C75.5004 41.3382 74.4487 40.9792 73.638 41.296C72.9369 41.5282 72.433 42.225 72.4111 42.943C72.4111 44.6111 72.4111 46.2791 72.4111 47.9473C72.4111 48.264 72.433 48.5807 72.3234 48.8763C72.1482 49.4675 71.6442 49.932 71.0307 50.101C70.2201 50.3122 69.2998 49.9743 68.9055 49.2564C68.6206 48.8341 68.6425 48.3062 68.6644 47.8206C68.6644 46.1524 68.6644 44.5055 68.6644 42.8374C68.6425 41.9928 67.9194 41.2326 67.0649 41.127C66.4952 41.0426 65.9037 41.2326 65.4874 41.6127C65.1149 41.9506 64.9178 42.4362 64.9178 42.9219V47.7572C64.9178 48.1584 64.9616 48.5807 64.8082 48.9607C64.5671 49.6576 63.8441 50.1644 63.0773 50.1432C62.2885 50.1855 61.5216 49.6576 61.2806 48.9607C61.1492 48.6018 61.1711 48.2429 61.1711 47.8628C61.1711 46.1947 61.1711 44.5266 61.1711 42.8585C61.1711 42.035 60.4919 41.2748 59.6593 41.127C58.8924 40.9792 58.0598 41.3382 57.6654 42.0139C57.512 42.2884 57.4244 42.6051 57.4244 42.9219V48.3484C57.4244 48.8763 57.1834 49.4042 56.7671 49.7421C56.1317 50.2699 55.1019 50.3122 54.4446 49.8265C53.9626 49.5098 53.6777 48.9607 53.6777 48.3907V42.9007C53.6777 40.8314 54.2255 38.7622 55.2553 36.9252C56.0879 35.426 57.2491 34.0957 58.6295 33.0399C60.6671 31.393 63.2744 30.4217 65.9475 30.2739Z" fill="#5741D9"/>
<path d="M117.151 36.6297H114.304C114.413 34.7082 114.829 32.9768 116.648 31.8788C118.466 30.8019 120.46 30.5485 122.542 30.7175C123.659 30.8019 124.776 31.0342 125.806 31.4987C127.625 32.3011 128.523 33.6736 128.523 35.5951C128.523 38.9946 128.523 42.3941 128.523 45.7936C128.523 47.0395 128.786 47.2717 130.078 47.145C130.211 47.1239 130.363 47.1028 130.495 47.0817C130.517 47.145 130.517 47.2084 130.517 47.2506V49.3199C129.487 49.6577 128.435 49.7633 127.406 49.4888C126.639 49.2776 126.157 48.7498 125.894 48.053C125.762 47.694 125.675 47.314 125.565 46.9127C125.456 47.0395 125.368 47.145 125.258 47.2506C123.002 49.4466 120.329 50.3756 117.174 49.5944C114.938 49.0454 113.405 47.0817 113.339 44.8435C113.317 44.1256 113.383 43.4077 113.558 42.7109C113.975 41.1061 115.158 40.1348 116.648 39.4802C117.699 39.0157 118.839 38.889 119.978 38.7412C121.315 38.5723 122.629 38.4245 123.966 38.2344C124.864 38.1077 125.324 37.6432 125.456 36.7775C125.741 35.025 124.93 33.8636 123.177 33.4413C122.125 33.1879 121.052 33.1457 119.978 33.3357C118.401 33.6103 117.524 34.4759 117.217 35.9752C117.239 36.1863 117.195 36.3974 117.151 36.6297ZM125.543 40.0081C124.228 40.6838 122.957 40.8527 121.665 41.0428C120.591 41.2116 119.496 41.3595 118.445 41.6763C117.064 42.1197 116.428 43.2176 116.56 44.6956C116.67 45.9204 117.524 46.9127 118.904 47.1239C121.029 47.4618 122.914 46.8917 124.404 45.3714C124.842 44.928 125.193 44.2945 125.28 43.7033C125.478 42.5208 125.456 41.3173 125.543 40.0081ZM166.143 43.5555C166.078 43.8511 166.034 44.1044 165.968 44.3368C164.741 47.9474 162.243 49.4888 159.22 49.8267C153.983 50.3756 150.981 47.0817 150.215 43.5766C149.601 40.7894 149.688 38.0233 150.959 35.405C152.164 32.9346 154.093 31.3087 156.963 30.823C160.403 30.2318 165.267 31.8788 166.078 37.052C166.297 38.3822 166.34 39.7548 166.472 41.1483H153.15C153.26 43.0487 153.566 44.8224 155.013 46.1949C155.604 46.7649 156.371 47.0395 157.204 47.1873C159.899 47.6518 162.133 46.406 163.01 43.8933C163.098 43.6188 163.229 43.5344 163.513 43.5555C164.368 43.5555 165.223 43.5555 166.143 43.5555ZM153.26 38.699H163.229C163.119 37.5798 162.923 36.5452 162.375 35.5739C161.848 34.6449 161.081 33.9692 160.03 33.6313C156.59 32.4912 153.041 35.1305 153.26 38.699ZM173.308 49.2143H170.284V31.0975H173.155V33.6313C173.374 33.3991 173.505 33.2513 173.637 33.1035C175.696 30.8441 178.282 30.2529 181.218 30.9497C183.255 31.4353 184.394 32.829 184.789 34.7715C184.942 35.5739 185.051 36.3974 185.051 37.1998C185.074 41.085 185.074 44.9702 185.074 48.8554C185.074 48.9609 185.051 49.0665 185.051 49.1932H181.962V48.7076C181.962 45.0758 181.985 41.444 181.941 37.8121C181.941 37.0098 181.809 36.1863 181.568 35.405C181.174 34.1381 180.122 33.4625 178.742 33.3991C176.221 33.3146 174.228 34.6026 173.614 36.7564C173.395 37.5377 173.33 38.3612 173.33 39.1846C173.308 42.373 173.308 45.5403 173.308 48.6864V49.2143ZM133.453 31.0975H136.367V38.7835C136.542 38.6145 136.652 38.53 136.761 38.4245C139.149 36.0807 141.538 33.7158 143.926 31.372C144.123 31.1609 144.32 31.0764 144.627 31.0764C145.745 31.0975 146.884 31.0764 148.111 31.0764C147.935 31.2454 147.848 31.3509 147.739 31.4565C145.635 33.4835 143.553 35.5317 141.429 37.5377C141.187 37.7699 141.187 37.9177 141.341 38.1711C143.641 41.6973 145.92 45.2236 148.198 48.7498C148.286 48.8765 148.352 49.0032 148.462 49.1932C148.308 49.2143 148.198 49.2143 148.067 49.2143C147.016 49.2143 145.985 49.2143 144.934 49.2143C144.649 49.2143 144.518 49.1088 144.364 48.8976C142.611 46.0682 140.858 43.2388 139.106 40.3882C139.018 40.2615 138.953 40.1348 138.843 39.987C138.032 40.7682 137.243 41.5073 136.455 42.2886C136.345 42.3941 136.323 42.5842 136.323 42.732C136.323 44.7168 136.323 46.7016 136.323 48.6864V49.1932C135.754 49.1932 135.184 49.1932 134.636 49.1932C134.242 49.1932 133.694 49.2988 133.475 49.0877C133.277 48.9187 133.387 48.3697 133.387 47.9897V31.5831C133.453 31.4776 133.453 31.3087 133.453 31.0975ZM99.8205 31.0764C97.4542 33.3357 95.1536 35.5528 92.8311 37.7699C95.3288 41.6129 97.7609 45.3714 100.237 49.2143C100.04 49.2143 99.9081 49.2355 99.7766 49.2355C98.7688 49.2355 97.739 49.2355 96.7311 49.2355C96.4464 49.2355 96.271 49.1298 96.1176 48.8976C94.3648 46.0682 92.612 43.2388 90.8591 40.3882C90.7934 40.2615 90.7058 40.1559 90.5963 39.987C90.158 40.4304 89.7637 40.916 89.2817 41.2539C88.2956 41.9719 88.0109 42.8587 88.0766 44.0411C88.1861 45.5825 88.0985 47.145 88.0985 48.6864V49.1932H85.2063V31.0975H88.0985V38.6568C88.1642 38.699 88.2299 38.7412 88.2737 38.7835C88.3614 38.6568 88.4052 38.509 88.4929 38.4034C90.8591 36.0596 93.2474 33.7369 95.6137 31.372C95.8328 31.1609 96.03 31.0553 96.3587 31.0764C97.3446 31.0975 98.3306 31.0764 99.3166 31.0764C99.47 31.0764 99.6014 31.0764 99.8205 31.0764ZM105.605 34.0958C107.073 32.0266 108.628 30.2952 111.521 30.8019V33.9059C110.754 33.948 109.987 33.927 109.264 34.0748C107.489 34.4337 106.109 35.9962 105.824 37.8966C105.78 38.2767 105.736 38.6568 105.736 39.0368C105.736 42.2675 105.736 45.498 105.736 48.7287V49.2355H102.756V31.1397H105.605C105.605 32.0899 105.605 33.0401 105.605 34.0958Z" fill="#5741D9"/>
</svg>
