<svg width="1252" height="697" viewBox="0 0 1252 697" fill="none" xmlns="http://www.w3.org/2000/svg">
<g filter="url(#filter0_d_1204_19895)">
<path d="M369.805 275.592C387.197 223.017 400.033 168.786 419.081 117.039V116.625C419.496 114.969 420.738 112.899 421.566 110.829C422.808 108.759 424.051 107.104 425.293 105.034C427.777 101.308 431.09 97.996 433.989 94.6842C440.2 88.0606 447.24 81.851 454.693 76.0553C469.6 64.8779 485.75 54.9426 501.899 46.2491C535.027 28.4481 569.81 14.373 605.422 1.9537C623.228 -4.25592 641.034 -10.0516 659.254 -15.4333C677.474 -20.815 695.694 -25.7827 713.914 -30.7504C750.354 -40.6858 786.793 -51.4492 821.991 -65.1104C839.797 -71.734 857.189 -79.1855 874.166 -87.0511C891.144 -94.9166 908.122 -103.61 925.099 -111.89C958.641 -128.449 994.253 -141.696 1031.11 -147.078C1049.33 -149.561 1068.37 -150.389 1086.59 -148.733C1105.23 -147.078 1123.45 -143.352 1141.67 -139.212C1159.89 -134.658 1178.11 -129.277 1196.33 -124.723C1214.55 -120.169 1233.18 -116.029 1252.23 -113.96C1289.91 -108.992 1328.84 -111.062 1366.11 -118.513C1403.37 -125.965 1439.81 -137.97 1474.6 -152.459C1491.99 -159.497 1509.38 -167.776 1526.36 -175.228C1543.75 -182.68 1561.14 -189.303 1578.95 -194.685C1614.56 -205.862 1651.41 -213.728 1688.68 -218.281C1763.22 -227.389 1839 -224.491 1913.12 -212.9C1950.39 -207.104 1986.83 -199.239 2023.27 -189.303C2059.29 -179.368 2095.32 -167.776 2129.69 -153.287L2133 -161.153C2097.8 -176.056 2061.78 -187.647 2025.34 -197.583C1988.9 -207.518 1951.63 -215.384 1914.36 -221.179C1839.41 -232.771 1763.22 -235.668 1687.85 -226.147C1650.17 -221.593 1612.9 -213.314 1576.88 -202.136C1558.66 -196.341 1540.85 -189.717 1523.46 -182.266C1506.07 -174.4 1489.09 -166.534 1471.7 -159.497C1436.91 -145.008 1401.3 -133.416 1364.45 -125.965C1327.59 -118.927 1289.91 -116.857 1253.06 -121.411C1234.42 -123.895 1216.2 -127.621 1197.98 -132.174C1179.76 -136.728 1161.54 -142.11 1143.32 -146.664C1125.1 -151.217 1106.06 -154.943 1087.01 -156.599C1067.96 -158.255 1048.5 -157.841 1029.86 -154.943C991.768 -149.561 955.742 -135.9 921.787 -119.341C904.809 -110.648 888.245 -102.368 871.268 -94.5027C854.29 -86.6371 836.898 -79.1855 819.507 -72.562C784.309 -58.9008 748.283 -48.1374 711.843 -38.202C693.623 -33.2343 675.403 -28.2665 657.183 -22.8849C638.963 -17.5032 621.157 -11.7075 603.352 -5.49789C567.74 7.33536 532.542 21.4105 499.001 39.2115C482.437 48.319 465.874 58.2544 450.966 69.8457C443.513 75.6414 436.059 81.851 429.434 88.8886C426.121 92.2004 422.808 95.9261 420.324 100.066C419.081 102.136 417.425 104.206 416.183 106.276C414.941 108.345 413.698 110.415 412.87 113.313V112.899C393.822 165.06 380.985 219.291 364.007 271.452C355.312 297.532 346.202 323.613 333.365 347.623C326.739 359.629 319.286 371.22 308.934 379.914C306.449 381.983 303.55 384.053 301.066 385.709C298.167 387.365 294.854 388.607 291.956 389.849L272.908 398.542C247.648 410.134 222.803 422.139 198.786 436.214C174.768 450.289 151.579 466.02 131.289 485.063C110.998 504.106 93.6067 527.289 84.9108 553.783C80.3558 567.031 77.8713 581.106 77.8713 594.767C77.4572 608.014 79.1136 621.261 82.4263 634.095C70.8318 622.503 60.0654 610.498 50.9554 597.251C41.4314 583.59 33.1496 568.273 30.665 551.714C29.4228 543.434 29.4228 535.154 31.0791 526.875C32.7355 518.595 36.0482 511.144 40.1891 503.692C48.4709 489.203 60.4795 476.784 72.9022 466.02C98.5758 444.08 127.562 426.693 157.377 410.134C172.284 401.854 187.191 394.403 202.512 386.537C217.834 379.086 232.741 369.978 245.992 359.215C259.657 348.451 271.251 335.618 281.189 321.543C286.159 314.505 290.299 307.054 294.026 299.188C297.753 291.323 301.066 283.457 304.379 275.592C315.973 243.302 323.013 210.183 332.537 177.479C337.092 161.334 342.475 145.189 348.686 129.458C354.898 113.727 362.351 98.824 371.461 84.7488C389.681 56.5985 413.698 32.1739 441.442 13.131C468.772 -6.32584 499.415 -21.229 530.886 -32.8203C562.357 -44.8256 595.07 -53.933 628.197 -61.3846C644.76 -65.1104 661.324 -68.4222 677.888 -73.3899C694.451 -77.9436 710.601 -83.3253 726.75 -89.121C758.635 -100.712 790.106 -114.374 820.749 -128.863C851.391 -143.352 882.034 -158.255 913.091 -171.502C944.148 -184.749 976.033 -196.341 1008.75 -203.378C1041.46 -210.002 1075.41 -211.658 1108.54 -206.276C1141.67 -200.894 1173.55 -189.303 1203.37 -174.4L1203.78 -173.986H1204.2C1224.07 -169.432 1243.53 -166.534 1263.83 -164.051C1283.7 -161.981 1303.99 -161.153 1323.87 -161.567C1344.16 -161.981 1364.03 -164.051 1383.91 -168.604C1403.79 -173.158 1422.84 -180.196 1440.23 -190.959C1444.37 -193.857 1448.92 -196.755 1452.65 -199.652C1456.38 -202.55 1460.52 -205.448 1464.66 -208.346C1472.53 -213.728 1481.22 -218.695 1489.92 -223.663C1507.31 -233.185 1525.12 -241.05 1543.75 -248.088C1580.6 -262.163 1619.11 -272.098 1658.04 -278.722C1677.5 -282.448 1697.38 -284.518 1716.84 -286.587C1736.72 -288.243 1756.18 -289.485 1776.05 -289.485C1815.81 -289.899 1855.15 -287.829 1894.48 -282.448C1973.16 -272.098 2050.18 -251.399 2123.89 -222.421L2127.62 -231.943C2053.08 -260.921 1975.23 -282.034 1895.73 -291.969C1855.97 -296.937 1815.81 -299.421 1776.05 -298.593C1756.18 -298.593 1735.89 -296.937 1716.01 -295.281C1696.14 -293.211 1676.26 -290.727 1656.38 -287.415C1617.04 -280.378 1578.12 -270.442 1540.44 -255.953C1521.8 -248.916 1503.17 -240.636 1485.78 -231.115C1477.08 -226.147 1468.39 -221.179 1460.1 -215.384C1455.96 -212.486 1451.82 -209.588 1447.68 -206.276C1443.95 -203.378 1439.81 -200.48 1435.67 -197.997C1419.11 -187.647 1400.89 -181.024 1381.84 -176.47C1362.79 -171.916 1343.33 -169.846 1323.45 -169.432C1303.58 -169.018 1284.12 -169.846 1264.24 -171.916C1244.78 -173.986 1225.31 -176.884 1206.27 -181.438C1176.04 -196.755 1143.32 -208.346 1109.37 -213.728C1075.41 -219.109 1040.22 -217.453 1006.68 -210.416C973.134 -203.378 940.835 -191.373 909.364 -178.126C877.893 -164.465 847.665 -149.561 817.022 -135.072C786.379 -120.583 755.323 -106.922 723.852 -95.3306C708.116 -89.5349 691.967 -84.1533 675.817 -79.5995C659.668 -75.0458 643.104 -71.32 626.541 -67.5942C593.413 -59.7287 560.7 -50.6212 528.815 -38.202C496.93 -26.1967 465.874 -10.8796 438.13 8.99127C409.971 28.4481 385.54 53.2867 366.906 82.265C357.796 96.7541 349.928 112.071 343.717 128.216C337.506 143.947 332.123 160.506 327.153 176.651C317.629 209.356 310.59 242.474 298.995 274.35C296.097 282.215 292.784 290.081 289.057 297.532C285.33 304.984 281.189 312.435 276.634 319.059C267.11 332.72 255.93 345.14 242.679 355.489C229.428 365.838 215.349 374.946 200.028 382.397C184.707 389.849 169.799 397.714 154.892 405.994C125.492 422.553 96.0912 440.768 70.4177 463.123C62.1359 470.574 54.2682 478.44 47.2286 487.547C54.2682 471.402 62.55 455.257 72.074 440.768C75.3867 435.8 78.6995 431.246 82.4263 426.693L82.8404 427.107C84.4967 424.623 86.1531 422.553 87.8094 420.069C96.5053 410.134 106.029 401.026 116.382 393.161C133.773 379.5 152.407 367.908 170.627 354.661C188.847 341.828 205.411 326.511 219.49 309.124C235.225 291.737 247.234 271.866 257.586 251.167C267.939 230.468 276.22 208.942 283.26 187.001C289.885 165.06 294.854 142.291 298.995 119.523C303.136 97.1681 313.074 76.4693 325.497 57.8404C338.334 38.7975 353.655 21.8245 370.219 6.50742C386.782 -8.80969 405.002 -22.8849 424.051 -35.7181C462.147 -60.9706 503.556 -81.2554 547.449 -94.0887C558.216 -97.4005 569.396 -99.4704 580.577 -101.954C591.757 -104.024 602.937 -106.508 614.532 -108.992C636.893 -113.96 659.254 -119.755 681.2 -126.379C725.508 -139.626 768.159 -157.013 809.982 -176.47C830.687 -186.405 851.391 -196.755 871.682 -207.518C891.972 -218.281 912.263 -228.631 933.381 -237.738C954.5 -246.846 975.618 -254.711 997.565 -260.507C1008.33 -263.405 1019.51 -265.475 1030.69 -266.717C1036.08 -267.131 1041.87 -267.131 1047.26 -267.131C1052.64 -266.717 1058.44 -265.889 1064.23 -265.061C1087.01 -262.163 1109.78 -260.093 1132.56 -256.367C1154.92 -253.055 1177.28 -247.674 1199.23 -241.464C1243.12 -227.803 1289.08 -217.039 1335.88 -219.523C1359.07 -220.765 1382.67 -225.733 1404.2 -235.668C1414.97 -240.636 1424.91 -247.26 1434.02 -254.711C1436.09 -256.781 1438.57 -258.851 1440.64 -260.507C1442.71 -262.577 1444.78 -264.647 1446.85 -266.717C1450.58 -270.856 1454.72 -274.582 1458.86 -278.308C1475.84 -292.383 1496.54 -302.732 1517.66 -311.012C1538.78 -319.291 1560.73 -325.087 1583.09 -330.055C1627.81 -339.576 1673.36 -344.958 1718.91 -347.028C1764.46 -349.098 1810.42 -348.27 1855.97 -343.716C1901.52 -339.576 1947.07 -333.781 1992.21 -325.915C2014.57 -321.775 2037.35 -317.222 2059.29 -312.254C2070.47 -309.77 2081.24 -306.458 2092.42 -303.56C2103.19 -300.249 2113.95 -296.523 2123.89 -291.969L2128.86 -301.904C2117.68 -306.872 2106.91 -310.598 2095.73 -313.91C2084.55 -317.222 2073.37 -320.119 2062.19 -323.017C2039.83 -328.399 2017.05 -332.953 1994.28 -336.678C1948.73 -344.544 1903.18 -349.926 1857.22 -354.065C1811.25 -358.205 1764.87 -359.033 1718.91 -356.963C1672.95 -354.479 1626.98 -349.512 1581.43 -339.576C1558.66 -334.609 1536.3 -328.399 1514.76 -319.705C1493.23 -311.012 1472.11 -300.663 1453.48 -285.345C1448.92 -281.62 1444.78 -277.48 1440.64 -272.926C1438.57 -270.856 1436.91 -268.786 1434.84 -267.131C1432.77 -265.475 1430.7 -263.405 1428.63 -261.749C1420.35 -254.711 1410.83 -248.502 1400.89 -243.534C1380.6 -234.012 1358.65 -229.045 1335.88 -227.803C1313.52 -226.561 1290.74 -228.631 1268.38 -232.357C1246.02 -236.082 1224.07 -242.292 1202.13 -248.916C1179.76 -255.125 1157.4 -260.507 1134.21 -263.819C1111.44 -267.131 1088.67 -269.614 1065.89 -272.098C1060.09 -272.926 1054.71 -273.754 1048.5 -274.168C1042.7 -274.582 1036.49 -274.168 1030.69 -273.754C1019.1 -272.512 1007.5 -270.442 996.323 -267.131C973.962 -261.335 952.015 -253.055 930.897 -243.534C909.778 -234.426 889.074 -223.663 868.783 -212.9C848.493 -202.136 828.202 -191.787 807.498 -181.852C766.089 -161.981 723.852 -144.594 679.958 -131.76C658.011 -125.137 636.065 -119.341 613.704 -113.96C602.523 -111.476 591.343 -108.992 580.162 -106.922C568.982 -104.852 557.388 -102.368 546.207 -99.0564C523.846 -92.4328 502.314 -84.1533 481.609 -74.2178C460.905 -64.2824 440.614 -52.6911 421.566 -39.8579C402.518 -27.0246 383.884 -12.9495 366.906 2.78162C349.928 18.5127 334.193 35.8997 321.356 55.3565C317.629 61.1522 313.903 66.9479 310.59 73.1575C313.488 61.5662 316.801 50.3889 320.942 39.2115C327.982 20.5826 336.678 3.19559 347.03 -13.7774C368.148 -47.3094 396.721 -75.4598 430.262 -96.1586C446.825 -106.508 465.045 -114.787 483.265 -121.825C501.899 -128.863 520.948 -133.002 539.996 -138.384C578.092 -148.733 616.602 -159.911 653.871 -172.744C672.505 -178.954 691.139 -185.991 709.773 -193.029C728.407 -200.48 746.627 -208.346 764.433 -216.625C800.458 -233.185 835.656 -251.399 871.268 -269.2C906.88 -286.587 943.319 -301.904 981.416 -312.668C1000.46 -318.05 1019.51 -322.189 1038.97 -324.259C1043.94 -324.673 1048.91 -325.087 1053.47 -325.501C1058.44 -325.501 1063.41 -325.915 1067.96 -325.915L1075.41 -325.501L1082.45 -324.673C1087.01 -324.259 1092.39 -323.431 1096.12 -322.189H1096.53C1139.6 -311.84 1183.08 -302.732 1226.97 -295.281C1238.15 -293.625 1248.92 -291.969 1260.1 -290.727C1271.28 -289.899 1282.05 -289.071 1293.23 -288.243C1304.41 -287.001 1315.17 -285.759 1326.77 -285.759C1337.95 -285.759 1349.54 -287.001 1360.72 -289.485C1383.08 -294.867 1403.37 -306.044 1422.01 -318.05C1431.53 -324.259 1440.23 -331.297 1449.34 -337.506L1463 -344.958C1467.56 -347.856 1472.53 -350.754 1477.08 -353.237C1479.57 -354.479 1481.64 -356.135 1484.12 -357.377L1491.57 -361.103L1506.07 -368.555L1521.39 -374.764C1526.36 -376.834 1531.33 -378.904 1536.71 -380.56C1557.41 -387.597 1578.53 -393.393 1600.07 -397.947L1616.22 -400.845C1621.6 -401.673 1626.98 -402.915 1632.37 -403.743L1665.08 -407.882C1675.84 -408.71 1687.03 -409.538 1698.21 -410.366C1709.39 -411.194 1720.15 -411.194 1731.33 -411.608H1747.9H1756.18C1759.08 -411.608 1761.56 -411.608 1764.46 -411.194L1797.59 -409.952C1808.77 -409.952 1819.53 -408.296 1830.71 -407.468L1863.84 -404.57C1951.63 -394.635 2038.59 -376.006 2123.89 -353.237L2125.96 -361.517C2040.24 -385.114 1952.87 -403.329 1864.67 -413.678L1831.54 -416.576C1820.36 -417.404 1809.6 -418.646 1798.42 -419.06L1764.87 -420.302C1761.98 -420.302 1759.49 -420.716 1756.59 -420.716H1748.31H1731.75C1720.57 -420.716 1709.39 -420.716 1698.21 -419.474C1687.03 -418.646 1675.84 -418.232 1664.66 -416.99L1631.54 -412.85C1626.15 -412.436 1620.36 -410.78 1614.97 -409.952L1598.41 -407.054C1576.46 -402.501 1554.93 -396.705 1533.81 -389.253C1528.43 -387.597 1523.46 -385.114 1518.08 -383.458L1502.34 -377.248L1487.43 -369.797L1479.98 -366.071C1477.5 -364.829 1475.01 -363.173 1472.53 -361.931C1467.56 -359.033 1463 -356.135 1458.03 -353.237L1444.37 -343.302C1435.26 -336.678 1426.98 -330.055 1417.45 -324.259C1399.23 -312.254 1379.77 -301.904 1359.07 -296.937C1348.71 -294.453 1337.95 -293.211 1327.18 -293.211C1316.41 -293.211 1305.65 -294.453 1294.47 -295.281C1283.29 -296.523 1272.11 -296.937 1261.34 -297.765C1250.57 -299.007 1239.39 -300.249 1228.63 -301.904C1185.15 -308.528 1141.67 -317.636 1098.6 -327.571H1099.02C1093.63 -329.227 1088.67 -329.641 1083.7 -330.469L1076.24 -330.883H1068.79C1063.82 -330.883 1058.85 -330.469 1053.88 -330.469C1048.91 -330.055 1043.94 -329.641 1038.97 -329.227C1019.1 -326.743 999.636 -322.189 980.173 -316.808C941.663 -305.63 904.809 -289.899 869.611 -272.098C834 -254.297 799.216 -235.668 763.19 -219.523C745.384 -211.244 727.164 -203.378 708.53 -195.927C690.31 -188.475 671.676 -181.852 652.628 -175.228C615.36 -162.395 577.264 -151.217 538.753 -140.868C519.705 -135.486 500.243 -131.346 481.609 -124.309C462.975 -117.271 444.755 -108.992 427.777 -98.2285C393.822 -77.1157 364.422 -48.5514 343.303 -14.6053C332.537 2.36765 323.841 20.1686 316.801 38.7975C313.488 48.3189 310.176 57.8405 307.691 67.3619C306.449 72.3296 305.207 76.8833 304.379 81.851C303.964 83.9209 303.55 86.4047 303.136 88.4746C298.995 98.41 295.683 109.173 293.612 119.937C289.471 142.705 285.33 165.06 278.705 187.001C272.079 208.942 263.798 230.468 253.86 250.753C248.476 261.102 243.507 271.038 237.296 280.559C231.085 290.081 224.459 299.602 217.006 307.882C202.926 324.855 186.363 339.344 168.557 352.177C150.751 365.01 131.703 376.602 114.311 390.677C110.998 393.575 107.272 396.473 103.959 399.37C125.906 368.322 146.61 336.446 166.487 303.742C179.323 282.215 191.746 260.688 202.926 238.334C214.107 215.979 224.873 193.624 233.983 170.028C238.538 158.436 242.679 146.431 245.992 134.426C249.305 122.421 252.203 110.001 253.86 97.582C257.172 73.1575 263.384 49.1469 272.494 26.3782C290.299 -19.5731 319.7 -60.5566 354.897 -94.9166C372.703 -111.89 392.166 -127.207 412.456 -141.282C433.161 -154.943 454.693 -166.948 477.468 -176.884C500.243 -186.819 523.432 -195.099 547.449 -200.894C559.458 -203.792 571.467 -206.69 583.889 -209.174C595.898 -212.072 608.321 -214.97 620.329 -218.281C668.364 -231.115 715.984 -248.088 761.12 -269.614C806.256 -291.141 849.321 -315.98 891.972 -341.646C915.99 -352.823 941.249 -361.931 966.508 -369.383C992.182 -376.834 1018.27 -382.216 1044.77 -383.872C1058.02 -384.7 1071.27 -384.7 1084.11 -383.458C1090.74 -382.63 1096.95 -381.802 1103.57 -380.146C1106.89 -379.318 1109.78 -378.49 1113.1 -377.662L1122.62 -374.764C1148.29 -366.899 1174.38 -360.275 1200.88 -354.893C1227.39 -349.512 1253.89 -345.372 1280.8 -344.13C1294.47 -343.716 1308.13 -343.716 1321.8 -345.786C1328.42 -347.028 1335.46 -349.098 1341.67 -351.996C1347.89 -354.893 1354.1 -357.791 1359.89 -361.103C1407.1 -386.77 1452.65 -414.92 1500.68 -437.689C1524.7 -448.866 1549.13 -459.629 1574.81 -465.425C1600.89 -471.221 1626.98 -475.36 1653.48 -478.258C1706.49 -484.054 1759.91 -485.296 1813.32 -481.984C1919.74 -475.774 2025.34 -452.178 2124.72 -413.678L2127.2 -420.302C2026.16 -457.973 1920.16 -481.57 1812.91 -488.194C1759.08 -491.505 1705.25 -490.263 1651.83 -484.468C1624.91 -481.57 1598.41 -477.43 1572.32 -471.635C1559.07 -468.737 1546.23 -464.597 1533.4 -459.629C1520.97 -454.662 1508.55 -449.28 1496.54 -443.484C1448.1 -420.302 1402.13 -392.151 1355.34 -366.899C1349.54 -363.587 1343.74 -360.689 1337.53 -358.205C1331.74 -355.307 1325.52 -353.651 1319.31 -352.41C1306.48 -350.34 1293.23 -349.926 1279.97 -350.754C1253.47 -351.996 1226.97 -356.135 1200.88 -361.103C1174.8 -366.485 1148.71 -373.108 1123.45 -380.56L1113.92 -383.458C1110.61 -384.286 1107.3 -385.528 1103.99 -385.942C1097.36 -387.597 1090.74 -388.425 1083.7 -389.253C1070.03 -390.909 1056.37 -390.909 1043.12 -389.667C1016.2 -387.597 989.283 -382.216 963.61 -374.764C937.522 -367.313 912.263 -358.205 887.831 -346.614C845.18 -320.947 802.115 -296.109 757.393 -274.996C712.671 -253.883 665.879 -236.91 617.845 -224.077C605.836 -220.765 593.827 -217.867 581.819 -214.97C569.81 -212.072 557.802 -209.588 545.379 -206.69C520.948 -200.48 497.344 -192.201 474.155 -182.266C451.38 -172.33 429.02 -159.911 408.315 -146.25C387.611 -132.174 367.734 -116.443 349.928 -99.0564C313.903 -64.2824 284.502 -22.0569 266.282 24.7224C257.172 47.905 250.961 72.7435 247.648 97.582C245.992 109.587 243.093 121.593 239.78 133.598C236.054 145.603 232.327 157.195 227.772 168.786C219.076 191.969 208.31 214.323 197.129 236.264C185.949 258.205 173.526 280.145 161.103 301.258C135.844 343.898 108.514 385.295 79.1136 425.451L79.5276 425.865C75.8008 430.419 72.4881 435.386 69.1754 440.354C63.3781 449.875 57.995 459.397 53.0259 469.746C49.2991 478.026 45.9864 486.305 42.6736 494.999C40.6032 497.897 38.5327 500.794 36.8764 504.106C32.7355 511.558 29.4228 519.837 27.7664 528.117C26.11 536.81 26.11 545.504 27.3523 553.783C30.2509 570.756 38.9468 586.487 48.885 600.149C58.8231 613.81 70.4177 625.815 82.4263 637.406V637.82H82.8404L83.2545 637.406L84.0826 637.82C98.9899 608.428 118.038 581.106 139.571 556.267C161.517 531.843 187.191 509.902 217.42 497.483C232.741 491.273 248.89 487.961 265.04 487.961C281.604 487.547 297.339 492.101 312.246 498.311C323.427 502.864 334.193 507.832 344.959 513.628C345.788 514.042 347.03 514.87 347.858 515.284C350.757 516.939 353.655 518.181 356.554 519.837C371.047 527.703 385.54 535.982 399.619 544.262C456.764 577.794 513.494 612.568 575.193 638.234C605.836 651.068 637.721 661.417 670.848 666.799C703.975 672.18 737.931 673.008 771.058 665.557C787.622 662.245 803.357 656.863 818.678 649.826C834 642.374 848.079 633.267 860.916 622.503C867.541 617.122 873.752 611.326 879.55 605.53C885.347 599.321 891.144 593.525 896.941 588.143C908.95 576.966 921.787 566.617 935.038 557.095C988.455 519.009 1053.05 496.241 1118.48 492.929C1151.19 491.273 1184.32 494.171 1216.62 500.794C1232.77 504.106 1249.33 507.418 1265.9 509.074C1282.46 511.144 1299.02 511.972 1316 511.558C1349.54 511.144 1382.67 506.59 1414.97 497.069C1431.12 492.515 1446.85 486.719 1461.76 479.682C1477.08 472.644 1491.57 464.779 1505.24 454.429L1513.52 449.461C1516.42 447.806 1519.32 446.15 1522.22 444.494L1530.91 439.526L1540.02 434.972C1545.82 432.074 1552.03 429.591 1558.24 426.693C1564.45 424.209 1570.67 421.725 1576.88 419.655C1602.14 410.962 1628.22 404.752 1654.73 401.026C1707.73 393.575 1761.98 394.817 1815.39 401.44C1868.81 408.064 1921.4 420.069 1972.75 435.386C1998.42 443.252 2024.09 451.531 2049.35 461.053C2074.61 470.16 2099.46 480.51 2124.3 490.859L2124.72 489.617C2099.87 478.854 2075.03 468.918 2049.77 459.397C2024.51 449.875 1998.83 441.182 1973.16 433.316C1921.4 417.585 1868.81 405.166 1815.39 398.128C1761.98 391.091 1707.32 389.435 1653.48 396.473C1599.65 403.51 1547.06 420.069 1500.68 449.461C1487.85 458.983 1473.35 466.848 1458.45 473.886C1443.54 480.924 1428.22 486.305 1412.48 490.859C1381.01 499.966 1348.3 504.934 1315.17 504.934C1298.61 504.934 1282.46 504.106 1265.9 502.45C1249.33 500.794 1233.6 497.483 1217.03 494.171C1184.32 487.547 1150.78 484.235 1117.65 486.305C1050.98 489.203 985.557 512.8 930.897 551.714C917.232 561.235 904.395 571.998 891.972 583.176C885.761 588.971 879.964 594.767 874.166 600.977C868.369 606.772 862.572 612.154 855.946 617.536C830.687 638.234 800.044 651.896 768.159 658.933C736.274 665.971 703.147 665.557 670.848 660.589C638.549 655.207 607.078 645.272 576.436 632.853C532.542 614.638 490.719 591.869 449.31 568.272C518.049 575.724 587.616 567.031 654.285 550.472C689.896 541.364 725.094 530.187 759.049 516.112C793.005 502.036 826.132 486.305 858.017 467.676C862.158 465.193 865.885 463.123 870.026 460.639L881.62 453.187C889.488 448.219 896.941 443.252 904.809 438.284C920.544 429.177 937.108 421.311 954.086 414.687C988.041 402.268 1024.48 395.231 1060.92 397.3C1079.14 398.128 1097.36 400.612 1114.75 405.58C1123.45 407.65 1132.56 410.548 1141.25 413.032C1149.95 415.515 1159.06 417.585 1167.76 419.655C1203.37 427.935 1239.81 434.558 1276.66 436.214C1313.52 438.284 1350.37 436.628 1386.4 429.177C1422.42 422.139 1457.62 409.306 1489.5 390.677L1513.11 377.016C1516.83 374.532 1521.39 372.876 1525.12 370.806C1529.26 368.736 1533.4 367.08 1537.54 365.424C1554.52 358.801 1571.91 353.419 1589.71 349.693C1625.33 341.414 1661.77 337.688 1698.21 336.032C1734.65 334.376 1771.5 334.79 1807.94 337.274C1844.38 339.758 1880.82 343.898 1916.85 350.107C1952.87 356.317 1988.48 364.596 2023.68 375.36C2032.38 377.844 2041.07 381.155 2049.77 384.053C2058.46 387.365 2066.75 390.677 2075.03 394.403C2091.59 401.854 2108.15 410.134 2123.06 420.483L2124.3 418.413C2109.4 407.65 2092.83 399.37 2075.86 391.919C2067.57 388.193 2058.88 384.881 2050.18 381.569C2041.49 378.672 2032.79 375.36 2024.09 372.876C1989.31 361.699 1953.29 353.419 1917.26 347.209C1881.23 341 1844.79 336.446 1807.94 333.962C1771.5 331.478 1734.65 330.65 1697.79 332.306C1661.35 334.376 1624.5 337.688 1588.47 345.967C1570.67 350.107 1552.86 355.075 1535.88 362.113C1531.74 363.768 1527.19 365.424 1523.05 367.494C1518.9 369.564 1514.76 371.22 1510.62 373.704L1486.61 387.365C1455.13 405.58 1420.35 417.999 1384.74 425.037C1349.13 432.074 1312.27 433.73 1275.83 431.661C1239.39 429.591 1203.37 423.381 1167.76 414.687C1158.65 412.618 1149.95 410.134 1141.25 408.064C1132.56 405.58 1123.86 403.096 1114.75 400.612C1096.95 395.645 1078.73 393.161 1060.09 392.333C1023.24 390.677 985.971 397.3 951.601 410.134C934.209 416.343 917.646 424.623 901.496 433.73C893.629 438.284 885.761 443.666 878.307 448.633L866.713 456.085C862.986 458.569 858.845 460.639 855.118 463.123C823.647 481.752 790.52 497.483 756.979 511.144C723.024 524.805 688.24 536.396 653.042 545.09C617.431 553.783 581.405 560.407 545.379 563.305L531.714 564.133C527.159 564.547 522.604 564.961 518.049 564.961C508.939 564.961 499.829 565.375 490.719 564.961C481.609 564.547 472.499 564.133 463.389 563.305L449.724 561.649L443.099 560.821L439.786 560.407C438.958 560.407 438.544 560.407 437.716 559.993C425.707 552.955 413.698 545.918 401.69 538.88C392.166 533.084 382.227 527.703 372.703 522.321C382.642 523.977 392.58 524.805 402.518 524.391C419.91 523.563 436.887 518.595 451.795 509.902C465.46 503.278 478.71 496.241 492.375 489.203C508.525 480.924 525.089 473.058 542.48 467.262C559.458 461.467 577.678 457.741 595.484 459.397C600.039 459.811 604.18 460.225 608.735 461.053L615.36 462.709C617.845 463.123 620.329 463.537 622.4 463.537C631.924 463.951 641.034 462.709 650.144 461.053C668.364 457.741 686.17 453.187 703.561 448.22C721.367 443.252 738.759 437.87 756.151 431.661C790.934 419.655 825.304 406.822 858.431 391.505C866.713 387.779 874.995 383.639 882.862 379.086C887.003 377.016 890.73 374.118 894.457 371.634C898.184 369.15 902.325 366.666 906.051 364.596C921.787 355.489 938.35 348.037 955.328 341.828C989.283 329.408 1025.72 323.199 1062.16 324.855C1080.38 325.683 1098.19 328.581 1115.58 333.548C1132.97 338.516 1150.78 343.484 1168.58 347.623C1204.2 355.903 1240.64 362.113 1277.49 364.182C1313.93 366.252 1351.2 364.596 1387.22 357.145C1423.25 349.693 1458.45 336.86 1490.33 318.645L1501.93 311.608C1505.65 309.124 1509.79 307.054 1513.52 304.57C1521.39 300.43 1529.67 296.704 1537.95 292.979C1554.93 286.355 1572.32 281.387 1590.13 277.248C1625.74 269.382 1662.18 265.656 1698.62 263.586C1771.5 260.274 1844.79 265.656 1916.85 278.076C1952.87 284.285 1988.48 292.565 2023.27 303.328C2040.66 308.71 2057.64 314.919 2074.61 322.371C2091.18 329.822 2107.33 338.102 2122.23 348.451L2124.72 345.14C2109.4 334.376 2093.25 326.097 2076.27 318.645C2059.29 311.194 2042.31 304.984 2024.51 299.188C1989.31 288.011 1953.7 279.731 1917.67 273.522C1845.62 261.102 1771.91 255.721 1698.62 259.033C1662.18 260.688 1625.33 264.828 1589.3 272.694C1571.49 276.834 1553.69 281.801 1536.3 288.425C1527.6 291.737 1519.32 295.463 1511.04 300.016C1506.9 302.086 1503.17 304.57 1499.03 307.054L1487.43 314.091C1455.96 332.306 1421.59 345.14 1385.98 352.177C1350.37 359.215 1313.52 361.285 1277.49 359.215C1241.05 357.145 1205.02 351.349 1169.41 342.656C1151.61 338.516 1134.21 333.548 1116.41 328.581C1098.6 323.613 1080.38 320.715 1061.75 319.887C1024.9 318.231 987.627 324.441 953.258 337.274C935.866 343.484 919.302 351.349 903.153 360.457C899.012 362.94 895.285 365.01 891.144 367.494C887.417 369.978 883.691 372.462 879.55 374.532C871.682 379.086 863.4 383.225 855.118 386.951C821.991 402.268 787.622 415.101 753.252 427.107C735.86 432.902 718.469 438.284 701.077 443.252C683.685 448.219 665.879 452.773 648.073 455.671C638.963 456.913 630.267 458.569 621.157 458.155C619.087 458.155 616.602 457.741 614.946 457.327L608.321 455.671C603.766 454.843 599.211 454.015 594.242 453.601C575.607 452.359 556.973 456.085 539.582 461.881C514.322 470.16 491.133 482.993 467.944 494.999C474.155 488.789 479.125 481.751 483.265 474.3C483.265 473.886 483.679 473.472 483.679 473.058C484.922 470.574 486.164 467.676 487.406 465.193C489.891 460.639 493.204 456.499 496.93 452.773C503.142 446.564 510.181 441.596 518.049 437.456C533.37 429.177 550.762 423.381 567.74 418.413C602.109 408.478 637.721 401.44 672.505 391.919C707.288 382.811 742.072 372.048 775.613 358.801C809.154 345.553 842.281 330.236 873.752 312.435C881.62 307.882 889.488 303.328 896.941 298.774C904.809 294.221 912.677 290.081 920.544 286.355C936.694 278.489 953.258 271.866 970.235 266.484C1004.19 256.135 1040.63 251.167 1075.83 255.307C1084.52 256.135 1093.63 257.791 1102.33 259.447C1111.03 261.102 1119.72 264 1128.42 266.484C1145.81 271.452 1163.2 276.006 1181.01 279.731C1216.2 287.597 1252.23 292.565 1288.67 293.807C1324.7 295.049 1361.55 292.151 1396.75 283.871C1431.95 275.592 1466.32 261.93 1496.96 242.888C1526.77 223.017 1561.56 212.253 1596.75 204.802C1631.95 197.764 1667.98 194.038 1703.59 192.796C1775.64 190.313 1847.69 195.694 1918.5 208.114C1954.11 214.323 1988.9 222.603 2023.27 233.366C2040.24 238.748 2057.22 244.957 2073.79 252.409C2090.35 259.861 2106.08 268.14 2120.58 278.076L2123.06 274.764C2108.15 264.414 2092.01 255.721 2075.44 248.269C2058.88 240.818 2041.9 234.608 2024.51 229.226C1990.14 218.049 1954.94 210.183 1919.33 203.56C1848.11 191.141 1775.64 185.345 1703.59 188.243C1667.56 189.485 1631.54 193.21 1595.93 200.248C1578.12 203.974 1560.73 208.528 1543.34 214.737C1534.64 218.049 1526.36 221.361 1518.08 225.087C1509.79 228.812 1501.93 233.78 1494.47 238.334C1463.83 256.963 1430.29 270.624 1395.51 278.903C1360.72 287.183 1324.7 289.667 1288.67 288.425C1252.64 287.183 1217.03 282.215 1181.84 274.35C1164.44 270.624 1147.05 266.07 1129.66 261.102C1120.96 258.619 1112.27 256.135 1103.57 254.065C1094.46 251.995 1085.77 250.753 1076.66 249.511C1040.22 245.371 1003.36 250.339 968.579 261.102C951.187 266.484 934.209 273.108 918.06 280.973C909.778 285.113 901.91 289.253 894.043 293.807C886.175 298.36 878.721 302.914 870.854 307.468C839.797 325.269 807.084 340.586 773.543 353.419C740.001 366.252 705.632 377.016 670.848 386.123C636.065 395.231 600.867 402.682 566.083 412.618C548.692 417.585 531.3 423.381 515.15 432.074C507.697 436.214 500.657 441.182 494.446 446.978L497.759 437.456C498.587 434.972 499.415 432.902 500.243 430.419L503.142 423.381C505.212 418.827 506.869 414.273 509.353 409.72L513.08 403.096C514.322 401.026 515.564 398.542 516.807 396.886C527.573 379.913 540.824 365.01 556.559 353.005C572.295 340.586 589.687 331.064 608.321 323.613L615.36 320.715L622.4 318.231C626.955 316.575 631.924 315.333 636.893 314.091C646.417 311.608 656.355 309.538 666.293 307.882C686.17 304.156 706.046 300.016 725.922 295.049C745.799 290.081 765.261 284.285 784.309 278.076C803.771 271.452 822.405 264.414 841.453 256.549C860.087 248.683 879.135 239.99 895.699 228.812C912.677 218.049 930.483 209.356 949.117 201.904C986.385 187.415 1026.55 180.377 1066.3 182.861L1081.21 184.517C1086.18 184.931 1091.15 186.173 1096.12 187.001C1101.09 187.829 1105.64 189.071 1110.61 190.313C1115.58 191.555 1120.14 192.796 1125.1 194.038C1144.57 199.42 1164.44 204.388 1184.32 208.942L1199.23 211.839L1214.13 214.323C1224.07 216.393 1234.42 217.221 1244.36 218.877C1264.65 220.947 1284.94 222.603 1305.23 222.189C1345.81 222.189 1386.81 216.807 1425.73 204.388L1440.23 199.006L1447.27 196.522C1449.75 195.694 1452.24 194.866 1454.31 193.624L1467.97 187.001C1472.53 184.931 1477.5 182.861 1481.64 179.963C1499.44 170.028 1516.01 158.85 1534.64 151.399C1553.27 143.947 1572.32 138.152 1592.2 134.012C1611.66 129.872 1631.54 126.56 1651.83 124.49C1671.7 122.421 1691.99 120.765 1712.28 120.351C1732.58 119.523 1752.45 119.937 1772.74 120.351C1812.91 122.007 1853.08 125.318 1893.24 131.528C1932.99 137.324 1972.75 145.603 2011.26 157.195C2030.72 162.99 2049.35 169.614 2067.99 177.479C2086.62 185.345 2104.43 194.452 2120.99 205.63L2124.3 201.076C2107.33 189.485 2089.11 179.963 2070.47 172.098C2051.84 164.232 2032.38 157.609 2012.91 151.813C1973.99 140.222 1934.24 131.942 1894.07 125.732C1853.9 119.523 1813.32 116.211 1773.16 114.555C1752.87 113.727 1732.58 113.727 1712.28 114.555C1691.99 114.969 1671.7 116.625 1651.41 118.695C1631.12 120.765 1611.25 124.077 1591.37 128.216C1571.49 132.356 1551.62 138.152 1532.98 146.017C1528.01 147.673 1523.46 150.157 1518.9 152.227C1516.42 153.469 1514.35 154.297 1511.86 155.539L1505.24 159.264L1479.15 174.582C1475.01 177.065 1470.46 179.135 1465.9 181.205L1452.24 187.415C1450.17 188.657 1447.68 189.485 1445.2 190.313L1438.16 192.796L1424.08 198.178C1385.98 210.597 1345.81 215.565 1305.65 215.565C1285.77 215.979 1265.48 214.323 1245.61 212.253C1235.67 210.597 1225.73 209.769 1215.79 207.7L1200.88 205.216L1185.98 202.318C1166.1 198.178 1146.64 193.21 1127.18 187.415C1122.21 186.173 1117.65 184.517 1112.27 183.275C1107.3 182.033 1102.33 180.377 1097.36 179.963C1092.39 179.135 1087.42 177.893 1082.04 177.479L1066.72 175.823C1025.72 172.926 984.728 180.377 946.218 194.866C927.17 202.318 908.95 211.425 891.558 222.189C874.995 233.366 856.775 241.646 838.141 249.511C819.507 257.377 800.458 264.414 781.41 270.624C762.362 276.834 742.9 282.629 723.438 287.597C703.975 292.565 684.099 296.704 664.223 300.43C654.285 302.086 644.346 304.156 634.408 306.64C629.439 307.882 624.47 309.124 619.501 311.194L612.047 313.677L605.008 316.575C585.96 324.027 567.74 334.376 551.59 347.209C535.441 360.043 521.362 375.36 510.595 392.747C499.415 410.134 491.961 429.591 486.164 449.047C484.922 453.187 483.68 456.913 482.023 461.053C480.367 464.365 478.71 467.676 477.054 470.988C471.257 481.338 463.803 490.445 454.693 497.483C439.372 509.488 419.91 515.698 400.033 516.939C380.985 518.181 361.109 514.456 344.131 506.59C333.365 501.208 322.598 495.827 311.004 491.687C303.136 488.789 295.269 485.891 286.987 484.235C278.705 482.166 270.423 481.338 261.727 481.752C260.899 481.752 260.485 481.752 259.657 481.752C265.04 479.682 270.837 478.026 276.22 475.956C288.643 470.988 300.652 465.607 312.66 459.397C336.263 446.978 359.038 432.488 379.329 415.101C387.611 408.064 395.892 401.026 403.346 393.161L422.808 375.774C437.301 363.355 452.623 351.349 467.53 338.93C498.587 315.747 529.643 292.979 564.013 275.178L570.224 271.866L573.537 270.21L576.85 268.554L590.101 262.758L603.352 256.963L617.016 251.995L630.681 247.027L644.76 242.888C649.315 241.646 653.871 239.99 658.84 239.162L672.919 235.85C682.443 233.366 691.967 231.71 701.077 229.64L729.649 223.431C739.173 221.361 748.283 218.877 757.807 216.393C767.331 213.909 776.441 210.597 785.551 208.114C822.405 196.108 857.603 178.307 891.144 159.678C924.685 140.635 960.297 125.318 997.979 117.453C1016.61 113.727 1036.08 111.657 1055.12 111.657C1060.09 112.071 1064.65 111.657 1069.62 112.071L1084.11 113.313L1098.19 115.797C1102.74 116.625 1107.3 117.867 1112.27 119.109C1149.54 129.458 1187.22 139.394 1225.73 144.775C1264.24 150.571 1303.16 152.641 1342.09 149.329C1347.06 149.329 1351.61 148.501 1356.58 147.673L1371.07 145.603C1380.6 143.947 1390.12 141.878 1399.65 139.808C1409.17 136.91 1418.28 134.84 1427.8 131.942L1441.47 126.974C1446.02 125.318 1450.58 123.663 1455.13 121.593L1468.39 115.383C1472.94 113.313 1477.5 111.243 1481.64 108.759L1506.9 94.2703C1523.46 84.7488 1541.27 77.2973 1559.49 71.5016C1577.71 66.1199 1596.75 61.5662 1615.8 58.2543C1634.85 55.3565 1653.9 52.8727 1673.36 51.2168C1750.38 45.4211 1827.82 49.9749 1904.01 61.9802C1942.1 68.1898 1979.79 76.4693 2016.64 87.6467C2035.27 93.0284 2053.08 99.652 2070.89 107.518C2088.69 114.969 2105.67 124.076 2121.41 134.84L2124.72 130.286C2108.57 119.109 2091.18 110.001 2073.37 102.55C2055.57 95.0983 2037.35 88.0607 2018.71 82.679C1981.44 71.0876 1943.35 63.2221 1905.25 57.0125C1828.64 45.0071 1750.79 40.4534 1673.36 46.2491C1653.9 47.491 1634.85 50.3889 1615.39 53.2867C1596.34 56.5985 1577.29 60.7382 1558.66 66.5339C1540.02 72.3295 1521.8 79.7811 1504.83 89.7166L1479.98 104.206C1475.84 106.69 1471.28 108.759 1467.14 110.829L1453.89 117.039C1449.75 119.109 1444.78 120.765 1440.64 122.421L1426.98 127.388C1417.87 130.286 1408.34 132.77 1399.23 135.254C1389.71 137.324 1380.6 139.394 1371.07 141.049L1356.58 143.119C1351.61 143.533 1347.06 144.361 1342.09 144.775C1303.58 148.087 1265.07 146.017 1226.97 140.222C1188.87 134.84 1151.61 124.904 1113.92 114.555C1109.37 113.313 1104.4 112.071 1099.85 111.243L1085.35 108.759L1070.86 107.104C1065.89 106.69 1060.92 106.69 1056.37 106.69C1036.9 106.276 1017.44 108.345 998.393 112.485C960.297 120.351 923.857 136.082 890.316 155.539C856.775 174.168 821.991 191.555 785.551 203.974C776.441 206.872 767.331 209.77 757.807 212.253C748.283 214.737 739.173 217.221 729.649 219.291L701.491 225.501C691.967 227.57 682.443 229.64 672.919 231.71L658.84 235.022C654.285 236.264 649.315 237.506 644.76 239.162L630.681 243.302L617.016 248.269L603.352 253.237L590.101 259.033L576.85 265.242L573.537 266.898L570.224 268.554L564.013 271.866C529.229 289.667 498.173 312.849 467.116 336.032C454.279 346.795 441.442 357.145 429.02 367.494C433.575 362.113 437.716 356.731 441.442 350.935C459.662 332.306 477.054 312.849 493.618 292.565C511.838 271.038 529.229 248.683 549.106 228.812C559.044 218.877 569.396 209.356 580.991 201.49C592.585 193.21 605.008 187.415 618.259 182.447C644.346 172.512 672.09 166.302 699.834 161.748C729.649 153.055 759.049 143.947 788.45 133.598C802.943 128.63 817.436 123.249 831.929 117.453C846.422 111.657 860.501 105.448 874.58 98.41C877.893 96.7542 881.62 94.6842 884.933 92.6143C888.245 90.5444 891.558 88.4746 894.871 86.4047C901.496 82.265 908.122 78.5391 914.747 74.8134C928.412 67.7758 942.491 61.1522 956.984 56.1844C985.971 45.8351 1016.61 39.6255 1047.26 39.2115C1050.98 38.7975 1055.12 39.2115 1058.85 39.2115C1062.58 39.2115 1066.72 39.2115 1070.45 39.6255C1077.9 40.4534 1085.77 40.8674 1093.22 42.5233C1096.95 43.3513 1100.67 43.7653 1104.4 44.5932L1115.58 47.491C1123.03 49.1469 1130.49 51.6308 1137.94 53.7007C1167.76 61.9802 1197.98 68.6038 1228.63 73.1575C1259.27 77.7112 1290.33 80.1951 1321.38 78.9531C1352.44 77.7112 1383.5 73.5715 1413.31 65.292L1424.49 61.9802C1428.22 61.1522 1431.95 59.4963 1435.67 58.2543L1446.44 54.1146L1451.82 52.0447C1453.48 51.2168 1455.55 50.3889 1457.21 49.5609L1478.32 39.6255L1498.61 28.0341C1524.7 11.4751 1553.69 0.711761 1583.5 -6.32584C1613.32 -13.3634 1643.96 -17.5032 1674.6 -19.987C1705.25 -22.4709 1736.3 -22.8849 1766.94 -22.0569C1828.64 -20.401 1889.93 -13.3634 1950.39 -0.530182C1980.61 6.09344 2010.43 13.959 2039.42 23.8944C2053.91 28.8621 2067.99 34.6578 2082.07 41.2814C2095.73 47.905 2109.4 55.3566 2121.82 64.05L2125.55 58.6683C2112.71 49.9749 2098.63 42.1093 2084.55 35.4857C2070.47 29.2761 2055.98 23.0664 2041.07 18.0987C2011.67 7.74933 1981.44 -0.116211 1951.21 -6.32584C1890.34 -18.7451 1828.64 -25.7827 1766.53 -27.4386C1735.47 -28.2665 1704.42 -27.8526 1673.36 -25.3687C1642.3 -22.8849 1611.66 -18.7451 1581.43 -11.2935C1573.98 -9.63763 1566.52 -7.15381 1559.07 -5.08392C1551.62 -2.60007 1544.16 -0.530182 1537.12 2.78162C1533.4 4.43753 1529.67 5.67944 1526.36 7.33536L1515.59 12.3031C1508.55 16.0288 1501.93 20.1686 1495.3 23.8944L1475.43 35.4857L1454.72 45.4211C1453.06 46.2491 1451.41 47.077 1449.34 47.905L1443.95 49.9749L1433.19 54.1146C1429.46 55.3566 1426.15 57.0125 1422.42 57.8404L1411.24 61.1522C1381.84 69.4318 1351.2 73.9854 1320.14 74.8134C1289.5 76.0553 1258.44 73.5715 1228.21 69.0178C1197.57 64.4641 1167.76 57.8405 1137.94 49.5609C1130.49 47.491 1123.03 45.4211 1115.58 43.3513L1104.4 40.4534C1100.67 39.6255 1096.53 39.2115 1092.81 38.3835C1085.35 36.7277 1077.48 36.3137 1069.62 35.4857C1065.89 35.0717 1061.75 35.0718 1058.02 35.0718C1054.3 35.0718 1050.15 34.6578 1046.43 35.0718C1015.37 35.4858 984.314 41.6954 954.914 52.4587C940.421 57.8405 925.928 64.0501 912.263 71.5016C898.598 78.5392 885.761 88.0606 872.096 94.6842C858.431 101.722 844.352 107.931 829.859 113.727C815.366 119.523 800.872 124.904 786.379 129.872C757.393 140.222 727.993 149.329 698.178 158.023C670.434 162.576 642.69 169.2 616.188 179.135C602.937 184.103 590.101 190.313 578.506 198.592C566.912 206.872 556.559 216.393 546.207 226.328C526.331 246.613 508.939 268.554 490.719 290.081C477.054 306.64 463.389 322.785 448.896 338.102C459.662 321.957 468.772 304.57 476.226 286.769C486.578 261.93 496.516 237.506 508.939 214.323C521.362 191.141 536.269 168.786 555.317 150.571C574.365 132.77 597.14 118.281 621.986 110.001C646.831 101.308 672.919 95.0983 699.006 90.9585C728.821 82.265 758.221 73.1575 787.622 62.8081C817.022 52.4587 846.008 41.6954 873.752 27.6202C880.792 24.3083 887.417 19.7546 894.043 15.6149C900.668 11.4751 907.294 7.74933 913.919 4.02356C927.584 -3.01404 941.663 -9.63763 955.742 -14.6053C984.728 -24.9547 1014.96 -31.1644 1045.6 -31.5784C1060.92 -31.9923 1076.24 -30.7504 1091.15 -28.2665C1106.06 -25.7827 1120.96 -21.229 1135.87 -17.0892C1165.69 -8.80969 1196.33 -1.77213 1226.97 2.78162C1257.61 7.33536 1289.08 9.81921 1320.14 8.5773C1351.2 7.74936 1382.25 3.19559 1412.48 -5.08392C1442.71 -13.7774 1471.7 -25.7827 1498.2 -42.3417C1523.87 -59.3147 1552.86 -69.6641 1582.67 -76.7017C1612.49 -83.7393 1643.13 -87.8791 1673.77 -90.3629C1704.42 -92.8468 1735.47 -93.2607 1766.12 -92.4328C1827.82 -90.7769 1889.1 -83.7393 1949.56 -70.9061C1979.79 -64.6964 2009.6 -56.4169 2038.59 -46.4815C2067.57 -36.1321 2095.73 -24.1268 2120.58 -6.73984L2125.55 -13.7774C2099.46 -31.9923 2070.47 -43.9977 2041.07 -54.347C2011.67 -64.6964 1981.44 -72.562 1951.21 -78.7716C1890.34 -91.6048 1828.64 -98.2285 1766.53 -99.8844C1735.47 -100.712 1704.42 -100.298 1673.36 -97.8145C1642.3 -95.3306 1611.66 -91.1909 1581.02 -83.7393C1565.7 -80.0135 1550.79 -75.4598 1536.3 -69.6641C1528.84 -66.7663 1521.8 -63.4545 1514.76 -60.1427C1511.45 -58.4868 1507.72 -56.4169 1504.41 -54.347L1494.47 -48.1374C1468.39 -31.9923 1440.23 -19.987 1410.83 -11.7075C1381.43 -3.42801 1350.78 0.711792 1320.14 1.9537C1289.5 3.19562 1258.86 0.711761 1228.21 -3.84198C1197.57 -8.39572 1167.76 -15.0193 1137.94 -23.2989C1123.03 -27.4386 1108.13 -31.9923 1092.81 -34.4762C1077.48 -36.9601 1061.75 -38.202 1046.01 -37.788C1014.54 -37.374 983.486 -31.1644 954.5 -20.401C940.007 -15.0193 925.514 -8.80969 911.849 -1.35812C904.809 2.36765 898.184 6.09344 891.558 10.6472C884.933 14.787 878.721 18.9267 871.682 22.2385C844.352 36.3137 815.366 47.077 786.379 57.4264C757.393 67.7758 727.993 76.8833 698.178 85.5768C671.676 90.1305 645.589 95.9261 620.743 105.034C608.321 109.587 595.898 114.969 584.303 122.421C572.709 129.458 561.942 137.738 552.418 146.845C532.956 165.474 517.635 188.243 505.212 211.839C492.789 235.436 482.851 260.275 472.499 284.699C455.935 324.855 430.676 361.285 399.619 391.919L389.681 400.612L384.298 405.58L381.399 408.064L380.157 409.306C379.743 409.72 379.743 409.72 379.329 410.134C378.915 410.548 378.915 410.548 378.501 410.962C358.21 427.935 335.849 442.424 312.66 454.843C301.066 461.053 289.057 466.434 276.634 471.402C270.423 473.886 264.212 475.956 258 478.026C254.688 479.268 251.789 480.096 248.476 480.924L243.507 482.166L242.265 482.579C232.741 484.235 223.217 487.133 214.521 490.859C183.464 503.692 157.377 526.461 135.844 551.299C125.078 563.719 115.139 577.38 106.029 591.041C97.3335 604.288 89.4658 617.95 82.4263 632.025C79.9417 619.192 78.2854 606.358 78.6995 593.525C79.1136 579.864 81.5981 566.203 86.5672 553.369C95.6772 527.703 112.655 504.934 132.945 486.305C153.236 467.676 176.011 452.359 200.028 438.698C224.045 425.037 248.89 413.032 274.15 401.854L293.198 393.575C296.511 392.333 299.409 391.091 302.722 389.021C306.035 387.365 308.934 385.295 311.832 382.811C312.246 382.397 312.66 381.983 313.074 381.983C321.356 377.43 329.224 372.048 337.092 367.08C354.897 354.661 372.289 341 388.025 326.097L399.619 314.505C403.76 310.366 406.659 305.812 409.557 301.258C415.355 291.737 419.081 281.387 422.808 271.038C429.434 250.339 433.989 228.812 439.372 207.7C444.755 186.587 450.966 165.888 461.319 147.259C463.803 142.705 466.702 138.152 470.014 133.598C471.671 131.528 473.327 129.458 474.984 127.388C476.64 125.318 478.71 123.663 480.781 122.007C488.649 114.969 497.759 108.759 506.869 102.964C543.308 79.7811 583.889 63.2221 624.47 48.319C634.822 44.5932 644.76 41.2814 655.113 37.9695C665.465 34.6577 675.817 31.3459 686.169 28.4481C706.874 22.2385 727.993 16.0289 748.697 9.40524C769.402 2.78162 790.106 -4.25595 810.396 -11.7075C830.687 -19.1591 850.977 -27.4386 870.854 -36.96C875.823 -39.4439 880.792 -41.9278 885.347 -44.8256C890.316 -47.7234 894.457 -50.6212 899.012 -53.5191C908.122 -59.3147 917.646 -64.2824 927.584 -68.8362C947.046 -78.3576 967.337 -85.3952 988.455 -90.7769C1030.28 -101.126 1074.59 -101.126 1116.41 -89.9489C1158.23 -77.9436 1200.47 -67.5942 1243.95 -62.2126C1287.01 -56.8309 1331.32 -56.4169 1374.39 -63.4545C1417.45 -70.4921 1459.69 -84.9812 1497.37 -107.75C1533.4 -131.76 1576.05 -143.352 1618.29 -150.803C1660.94 -158.255 1704.42 -160.739 1747.48 -160.739C1790.96 -160.739 1834.03 -157.841 1877.09 -152.459C1920.16 -147.078 1962.81 -139.212 2004.22 -127.621C2024.92 -121.825 2045.63 -115.201 2065.5 -106.922C2085.38 -98.6424 2104.84 -89.121 2122.23 -76.7017L2127.2 -83.7393C2108.98 -96.5725 2089.11 -106.094 2068.82 -114.374C2048.53 -122.653 2027.41 -129.277 2006.7 -135.072C1964.47 -146.664 1921.4 -154.115 1878.33 -159.497C1834.86 -164.879 1791.38 -167.362 1747.9 -167.362C1704.42 -166.948 1660.52 -164.051 1617.46 -156.599C1595.93 -152.873 1574.81 -147.906 1553.69 -140.868C1543.34 -137.142 1532.98 -133.416 1523.05 -128.449C1518.08 -125.965 1513.11 -123.481 1508.55 -120.583L1494.47 -111.89C1457.62 -89.5349 1416.21 -75.0458 1373.56 -68.0082C1330.91 -60.9706 1287.43 -61.3846 1244.36 -66.7663C1201.3 -71.734 1159.06 -82.0834 1117.24 -94.0887C1075 -105.68 1029.45 -105.266 987.213 -94.9166C966.094 -89.9489 945.39 -82.0834 925.514 -72.976C915.575 -68.4222 906.051 -63.0405 896.527 -57.2448C891.972 -54.347 887.417 -51.4492 882.862 -48.5514C878.307 -45.6535 873.338 -43.1697 868.783 -41.0998C849.321 -31.5783 829.031 -23.7128 808.74 -15.8473C788.45 -8.39572 767.745 -1.35815 747.041 5.26547C726.336 11.8891 705.632 18.0987 684.927 24.3083C674.575 27.6202 664.223 30.518 653.871 33.8298C643.518 37.1417 633.166 40.4534 622.814 44.5932C581.819 59.4963 541.652 76.0553 504.384 99.6519C495.274 105.448 486.164 111.657 477.882 119.109C475.812 121.179 473.741 122.835 472.085 124.904C470.014 126.974 468.358 129.458 466.702 131.528C463.389 136.082 460.49 140.636 457.592 145.603C446.825 165.06 440.614 186.173 435.231 207.286C429.848 228.398 425.293 249.511 419.081 270.21C415.769 280.559 412.042 290.495 406.245 299.602C403.346 304.156 400.447 308.71 396.721 312.435L385.126 323.613C366.078 341.828 344.959 357.973 322.598 372.462C328.396 365.424 332.951 357.559 337.506 350.107C351.585 328.167 361.109 301.672 369.805 275.592Z" fill="white"/>
</g>
<defs>
<filter id="filter0_d_1204_19895" x="0.466797" y="-516" width="2158.53" height="1212.99" filterUnits="userSpaceOnUse" color-interpolation-filters="sRGB">
<feFlood flood-opacity="0" result="BackgroundImageFix"/>
<feColorMatrix in="SourceAlpha" type="matrix" values="0 0 0 0 0 0 0 0 0 0 0 0 0 0 0 0 0 0 127 0" result="hardAlpha"/>
<feOffset/>
<feGaussianBlur stdDeviation="13"/>
<feComposite in2="hardAlpha" operator="out"/>
<feColorMatrix type="matrix" values="0 0 0 0 0.441667 0 0 0 0 0.799 0 0 0 0 1 0 0 0 1 0"/>
<feBlend mode="normal" in2="BackgroundImageFix" result="effect1_dropShadow_1204_19895"/>
<feBlend mode="normal" in="SourceGraphic" in2="effect1_dropShadow_1204_19895" result="shape"/>
</filter>
</defs>
</svg>
