<svg width="22" height="22" viewBox="0 0 22 22" fill="currentColor" xmlns="http://www.w3.org/2000/svg">
<path fill-rule="evenodd" clip-rule="evenodd" d="M2.7056e-07 1.838C2.7056e-07 1.35053 0.19365 0.883033 0.53834 0.538333C0.88303 0.193643 1.35053 2.51803e-06 1.838 2.51803e-06H20.16C20.4016 -0.000397482 20.6409 0.0468625 20.8641 0.139063C21.0874 0.231273 21.2903 0.366613 21.4612 0.537333C21.6322 0.708063 21.7677 0.910823 21.8602 1.13401C21.9526 1.35719 22.0001 1.59642 22 1.838V20.16C22.0003 20.4017 21.9529 20.641 21.8606 20.8643C21.7683 21.0876 21.6328 21.2905 21.462 21.4614C21.2912 21.6323 21.0884 21.7678 20.8651 21.8602C20.6419 21.9527 20.4026 22.0002 20.161 22H1.838C1.59655 22 1.35746 21.9525 1.1344 21.86C0.91134 21.7676 0.70867 21.6321 0.53798 21.4614C0.3673 21.2906 0.23193 21.0878 0.13962 20.8647C0.0473102 20.6416 -0.000130729 20.4025 2.7056e-07 20.161V1.838ZM8.708 8.388H11.687V9.88395C12.117 9.02395 13.217 8.25 14.87 8.25C18.039 8.25 18.79 9.96295 18.79 13.106V18.928H15.583V13.822C15.583 12.032 15.153 11.022 14.061 11.022C12.546 11.022 11.916 12.111 11.916 13.822V18.928H8.708V8.388ZM3.208 18.791H6.416V8.25H3.208V18.791ZM6.875 4.812C6.88105 5.08667 6.83217 5.35978 6.73124 5.61531C6.63031 5.87084 6.47935 6.10363 6.28723 6.30003C6.09511 6.49643 5.8657 6.65247 5.61246 6.759C5.35921 6.86554 5.08724 6.92041 4.8125 6.92041C4.53776 6.92041 4.26579 6.86554 4.01255 6.759C3.7593 6.65247 3.52989 6.49643 3.33777 6.30003C3.14565 6.10363 2.99469 5.87084 2.89376 5.61531C2.79283 5.35978 2.74395 5.08667 2.75 4.812C2.76187 4.27285 2.98439 3.75979 3.36989 3.38268C3.75539 3.00558 4.27322 2.79441 4.8125 2.79441C5.35178 2.79441 5.86961 3.00558 6.25512 3.38268C6.64062 3.75979 6.86313 4.27285 6.875 4.812Z"/>
</svg>
