<svg width="216" height="32" viewBox="0 0 216 32" fill="none" xmlns="http://www.w3.org/2000/svg">
<g id="Logo%C2%A0%E2%80%94%20%D0%BA%D0%BE%D0%BF%D0%B8%D1%8F.svg" clip-path="url(#clip0_1207_7004)">
<path id="Vector" d="M78.5092 11.1264C78.5092 5.32637 76.4782 3 71.1041 3H55.4814V25.1165H61.2618V8.13076H69.948C72.2289 8.13076 72.5726 8.83186 72.5726 11.1264C72.5726 13.9626 72.2289 14.3132 69.948 14.3132H63.4851L65.4535 19.4439H71.1041C77.1656 19.4439 78.5092 17.3406 78.5092 11.1264Z" fill="white"/>
<path id="Vector_2" d="M85.55 25.1165V3H80.582V25.1165H85.55Z" fill="white"/>
<path id="Vector_3" d="M124.367 16.2252V11.5725C124.367 5.2945 121.68 3 115.65 3H99.6211V25.1165H105.401V8.13076H115.493C117.524 8.13076 118.399 8.73626 118.399 11.5725V16.2252C118.399 18.5516 117.618 19.9857 115.493 19.9857H107.624L109.593 25.1165H116.431C122.461 25.1165 124.367 22.2483 124.367 16.2252Z" fill="white"/>
<path id="Vector_4" d="M132.066 6.8879V3H127.098V6.8879H132.066ZM132.066 25.1165V9.62856H127.098V25.1165H132.066Z" fill="white"/>
<path id="Vector_5" d="M155.914 24.4477V9.62891H150.946V21.229H142.135C140.011 21.229 139.573 20.6553 139.573 17.4685C139.573 13.8993 139.823 13.5169 142.135 13.5169H148.723L147.036 9.62891H140.448C135.261 9.62891 134.605 12.4333 134.605 17.4685C134.605 21.8344 135.105 25.1169 140.448 25.1169H150.946V25.7861C150.946 27.9531 150.478 28.3037 148.353 28.3037H135.386C135.918 31.5542 137.73 32.0004 142.323 32.0004H148.509C154.383 32.0004 155.914 30.2158 155.914 24.4477Z" fill="white"/>
<path id="Vector_6" d="M163.707 6.8879V3H158.739V6.8879H163.707ZM163.707 25.1165V9.62856H158.739V25.1165H163.707Z" fill="white"/>
<path id="Vector_7" d="M185.088 20.6867H173.277C172.371 20.6867 172.152 20.3043 172.152 19.3801V14.0581H183.336L184.908 9.62848H172.152V6.37793H167.184V9.62848H165.341V14.0581H167.184V20.8142C167.184 24.7021 169.84 25.1164 172.996 25.1164H179.558C183.151 25.1164 184.744 23.6823 185.088 20.6867Z" fill="white"/>
<path id="Vector_8" d="M207.637 25.1169V9.62891H192.358C188.671 9.62891 186.609 11.7641 186.609 15.8432V17.9784C186.609 22.6949 188.171 25.1169 192.358 25.1169H198.977L200.445 20.6872H194.295C192.264 20.6872 191.577 20.7191 191.577 17.3729C191.577 14.5048 191.67 14.0586 194.295 14.0586H202.669V25.1169H207.637Z" fill="white"/>
<path id="Vector_9" d="M216 25.1165V0.928711H211.032V25.1165H216Z" fill="white"/>
<path id="Vector_10" d="M39.3023 3L45.2912 13.9758L39.3023 24.9517H32.7455L32.7693 24.9082L26.1964 24.8603L29.4748 18.952L35.9933 18.9995L38.7345 13.9758L35.9752 8.91901L3.2784 8.99965L0 3H39.3023Z" fill="#4FA0FF"/>
<path id="Vector_11" d="M12.5457 13.9756H5.98893L0 24.9515H6.55677L12.5457 13.9756Z" fill="#4FA0FF"/>
<path id="Vector_12" d="M19.0875 13.9756H25.6443L19.6554 24.9515H13.0986L19.0875 13.9756Z" fill="#4FA0FF"/>
</g>
<defs>
<clipPath id="clip0_1207_7004">
<rect width="216" height="32" fill="white"/>
</clipPath>
</defs>
</svg>
