<svg width="216" height="32" viewBox="0 0 216 32" fill="currentColor" xmlns="http://www.w3.org/2000/svg">
<path d="M78.5092 11.1312C78.5092 5.33124 76.4782 3.00487 71.1041 3.00487H55.4814V25.1214H61.2618V8.13564H69.948C72.2289 8.13564 72.5726 8.83673 72.5726 11.1312C72.5726 13.9675 72.2289 14.318 69.948 14.318H63.4851L65.4535 19.4488H71.1041C77.1656 19.4488 78.5092 17.3455 78.5092 11.1312Z"/>
<path d="M85.5491 25.1214V3.00487H80.5811V25.1214H85.5491Z"/>
<path d="M124.367 16.2301V11.5774C124.367 5.29937 121.679 3.00487 115.649 3.00487H99.6203V25.1214H105.401V8.13564H115.493C117.524 8.13564 118.399 8.74113 118.399 11.5774V16.2301C118.399 18.5565 117.618 19.9906 115.493 19.9906H107.624L109.592 25.1214H116.43C122.461 25.1214 124.367 22.2532 124.367 16.2301Z"/>
<path d="M132.065 6.89278V3.00487H127.097V6.89278H132.065ZM132.065 25.1214V9.63344H127.097V25.1214H132.065Z"/>
<path d="M155.914 24.4521V9.63344H150.946V21.2335H142.135C140.01 21.2335 139.573 20.6598 139.573 17.473C139.573 13.9038 139.823 13.5213 142.135 13.5213H148.723L147.036 9.63344H140.448C135.261 9.63344 134.605 12.4378 134.605 17.473C134.605 21.8389 135.105 25.1214 140.448 25.1214H150.946V25.7906C150.946 27.9576 150.477 28.3082 148.353 28.3082H135.386C135.917 31.5587 137.729 32.0049 142.322 32.0049H148.509C154.383 32.0049 155.914 30.2203 155.914 24.4521Z"/>
<path d="M163.707 6.89278V3.00487H158.739V6.89278H163.707ZM163.707 25.1214V9.63344H158.739V25.1214H163.707Z"/>
<path d="M185.088 20.6917H173.277C172.371 20.6917 172.152 20.3093 172.152 19.3851V14.0631H183.336L184.907 9.63344H172.152V6.38289H167.184V9.63344H165.341V14.0631H167.184V20.8192C167.184 24.7071 169.84 25.1214 172.996 25.1214H179.557C183.15 25.1214 184.744 23.6873 185.088 20.6917Z"/>
<path d="M207.636 25.1214V9.63344H192.357C188.67 9.63344 186.608 11.7686 186.608 15.8477V17.9829C186.608 22.6994 188.17 25.1214 192.357 25.1214H198.976L200.445 20.6917H194.294C192.264 20.6917 191.576 20.7235 191.576 17.3774C191.576 14.5093 191.67 14.0631 194.294 14.0631H202.668V25.1214H207.636Z"/>
<path d="M216 25.1214V0.933594H211.032V25.1214H216Z"/>
<path d="M39.3023 3.00488L45.2912 13.9807L39.3023 24.9566H32.7455L32.7693 24.9131L26.1964 24.8651L29.4748 18.9569L35.9933 19.0044L38.7345 13.9807L35.9752 8.9239L3.2784 9.00453L0 3.00488H39.3023Z"/>
<path d="M12.5457 13.9807H5.98893L0 24.9566H6.55677L12.5457 13.9807Z"/>
<path d="M19.0871 13.9807H25.6439L19.655 24.9566H13.0982L19.0871 13.9807Z"/>
</svg>
