<svg width="18" height="12" viewBox="0 0 18 12" fill="currentColor" xmlns="http://www.w3.org/2000/svg">
<path d="M10.1531 6.00001C10.1531 8.79563 7.88063 11.0625 5.076 11.0625C4.4103 11.0634 3.75094 10.9332 3.13557 10.6792C2.5202 10.4253 1.96087 10.0526 1.48952 9.58253C1.01817 9.11244 0.644028 8.5541 0.388456 7.93941C0.132883 7.32472 0.000885833 6.66571 0 6.00001C0 3.20326 2.2725 0.937506 5.076 0.937506C5.7418 0.936471 6.40128 1.0666 7.01678 1.32047C7.63228 1.57434 8.19174 1.94697 8.66321 2.41708C9.13468 2.88719 9.50892 3.44558 9.76456 4.06034C10.0202 4.67511 10.1522 5.33421 10.1531 6.00001ZM15.7219 6.00001C15.7219 8.63251 14.5856 10.7655 13.1839 10.7655C11.7821 10.7655 10.6459 8.63138 10.6459 6.00001C10.6459 3.36751 11.7821 1.23451 13.1839 1.23451C14.5856 1.23451 15.7219 3.36863 15.7219 6.00001ZM18 6.00001C18 8.35801 17.6006 10.2694 17.1068 10.2694C16.614 10.2694 16.2146 8.35688 16.2146 6.00001C16.2146 3.64201 16.614 1.73063 17.1079 1.73063C17.6006 1.73063 18 3.64201 18 6.00001Z"/>
</svg>
