<svg width="48" height="48" viewBox="0 0 48 48" fill="none" xmlns="http://www.w3.org/2000/svg">
<g id="ant-design:desktop-outlined">
<path id="Vector" d="M21.8333 26.3333V19C21.8333 17.9917 21.0083 17.1667 20 17.1667H12.6667V13.5H21.8333V9.83333H17.25V8H13.5833V9.83333H10.8333C9.825 9.83333 9 10.6583 9 11.6667V19C9 20.0083 9.825 20.8333 10.8333 20.8333H18.1667V24.5H9V28.1667H13.5833V30H17.25V28.1667H20C21.0083 28.1667 21.8333 27.3417 21.8333 26.3333ZM35.7483 25.4533L25.3717 35.8117L20.1833 30.6233L17.5983 33.2267L25.3717 41L38.3333 28.0383L35.7483 25.4533Z" fill="white"/>
</g>
</svg>
