<svg width="48" height="48" viewBox="0 0 48 48" fill="none" xmlns="http://www.w3.org/2000/svg">
<g id="ant-design:desktop-outlined">
<g id="Vector">
<path d="M39.6322 16.3303C39.6039 16.0447 39.5037 15.7709 39.3408 15.5345C39.1778 15.2982 38.9576 15.107 38.7007 14.979L25.1021 8.1797C24.866 8.06153 24.6055 8 24.3414 8C24.0774 8 23.8169 8.06153 23.5808 8.1797L9.98219 14.979C9.72599 15.1078 9.50644 15.2991 9.3439 15.5354C9.18136 15.7716 9.08109 16.045 9.05239 16.3303C9.03369 16.5122 7.41886 34.6323 23.6522 41.8515C23.8691 41.9494 24.1043 42 24.3423 42C24.5803 42 24.8155 41.9494 25.0324 41.8515C41.2657 34.6323 39.6509 16.5139 39.6322 16.3303ZM24.3423 38.4229C12.8362 32.8611 12.2923 20.9913 12.3857 17.5797L24.3423 11.6014L36.2903 17.5763C36.3532 20.9573 35.7328 32.9053 24.3423 38.4229Z" fill="white"/>
<path d="M22.6425 25.9955L18.7448 22.0978L16.3413 24.5014L22.6425 30.8026L32.3434 21.1017L29.9399 18.6982L22.6425 25.9955Z" fill="white"/>
</g>
</g>
</svg>
