<svg width="48" height="48" viewBox="0 0 48 48" fill="none" xmlns="http://www.w3.org/2000/svg">
<g id="ant-design:desktop-outlined">
<path id="Vector" d="M37.2677 32.986C36.204 31.9214 34.961 31.0525 33.5958 30.4191C35.521 28.8594 36.7492 26.4795 36.7492 23.8105C36.7492 19.1017 32.8223 15.2385 28.1135 15.3108C23.4769 15.383 19.7412 19.1612 19.7412 23.8105C19.7412 26.4795 20.9737 28.8594 22.8946 30.4191C21.5292 31.052 20.2862 31.921 19.2227 32.986C16.9023 35.3107 15.5849 38.3791 15.4999 41.6515C15.4987 41.6969 15.5067 41.742 15.5233 41.7842C15.5398 41.8265 15.5647 41.865 15.5964 41.8974C15.6281 41.9299 15.6659 41.9557 15.7077 41.9733C15.7496 41.9909 15.7945 42 15.8398 42H18.2198C18.4025 42 18.5555 41.8555 18.5598 41.6728C18.6405 39.2078 19.6392 36.9002 21.3944 35.1492C22.2926 34.2463 23.3609 33.5304 24.5376 33.0431C25.7143 32.5558 26.9759 32.3067 28.2495 32.3103C30.8377 32.3103 33.2728 33.3175 35.1045 35.1492C36.8555 36.9002 37.8542 39.2078 37.9392 41.6728C37.9434 41.8555 38.0964 42 38.2792 42H40.6591C40.7045 42 40.7494 41.9909 40.7912 41.9733C40.833 41.9557 40.8709 41.9299 40.9026 41.8974C40.9343 41.865 40.9591 41.8265 40.9757 41.7842C40.9923 41.742 41.0002 41.6969 40.9991 41.6515C40.9141 38.3791 39.5966 35.3107 37.2677 32.986ZM28.2495 29.2504C26.796 29.2504 25.4276 28.6851 24.4033 27.6567C23.8893 27.1467 23.4833 26.5384 23.2095 25.8682C22.9357 25.1979 22.7997 24.4793 22.8096 23.7553C22.8224 22.3613 23.3791 21.0141 24.3523 20.0154C25.3723 18.9699 26.7365 18.3877 28.1942 18.3707C29.6349 18.3579 31.0332 18.9189 32.0616 19.9261C33.1156 20.9589 33.6936 22.3401 33.6936 23.8105C33.6936 25.264 33.1283 26.6282 32.0999 27.6567C31.5953 28.1637 30.9952 28.5656 30.3343 28.8391C29.6734 29.1127 28.9648 29.2525 28.2495 29.2504ZM17.6035 24.9325C17.5653 24.5628 17.544 24.1888 17.544 23.8105C17.544 23.1348 17.6078 22.4761 17.7268 21.8343C17.7565 21.6813 17.6758 21.5241 17.5355 21.4604C16.9576 21.2011 16.4263 20.8441 15.9673 20.3936C15.4265 19.8692 15.0009 19.2378 14.7177 18.5398C14.4345 17.8417 14.3 17.0922 14.3226 16.3393C14.3609 14.975 14.9091 13.6788 15.8653 12.7014C16.9151 11.6261 18.326 11.0397 19.8262 11.0567C21.1819 11.0694 22.4909 11.5921 23.4811 12.5186C23.8169 12.8331 24.1059 13.1816 24.3481 13.5556C24.4331 13.6873 24.5988 13.7426 24.7433 13.6916C25.4913 13.4323 26.2818 13.2496 27.0935 13.1646C27.3315 13.1391 27.4675 12.8841 27.3613 12.6716C25.98 9.93894 23.1581 8.052 19.8942 8.001C15.1811 7.92875 11.2542 11.7919 11.2542 16.4965C11.2542 19.1654 12.4824 21.5454 14.4076 23.1051C13.0562 23.7298 11.811 24.5925 10.7315 25.672C8.40257 27.9967 7.0851 31.0651 7.00011 34.3417C6.99897 34.3871 7.00693 34.4322 7.02351 34.4744C7.04008 34.5167 7.06495 34.5552 7.09663 34.5876C7.12832 34.6201 7.16618 34.6459 7.20799 34.6635C7.24981 34.6812 7.29472 34.6902 7.3401 34.6902H9.72428C9.90702 34.6902 10.06 34.5457 10.0643 34.363C10.145 31.898 11.1437 29.5904 12.8989 27.8394C14.1484 26.59 15.6784 25.723 17.3486 25.3022C17.5143 25.2597 17.6248 25.1025 17.6035 24.9325Z" fill="white"/>
</g>
</svg>
