<svg width="25" height="26" viewBox="0 0 25 26" fill="currentColor" xmlns="http://www.w3.org/2000/svg">
<g id="mdi_twitter.svg">
<path id="Vector" d="M23.3971 6.58429C22.595 6.94889 21.7305 7.18849 20.8346 7.30304C21.7513 6.75099 22.4596 5.87599 22.793 4.8239C21.9284 5.34474 20.97 5.70929 19.9596 5.91764C19.1367 5.02181 17.9805 4.50098 16.668 4.50098C14.2201 4.50098 12.22 6.50099 12.22 8.96974C12.22 9.32389 12.2617 9.66764 12.3346 9.99054C8.62633 9.80304 5.32423 8.02179 3.1263 5.3239C2.74089 5.98014 2.52214 6.75099 2.52214 7.56349C2.52214 9.11554 3.30339 10.4905 4.51172 11.2718C3.77214 11.2718 3.08464 11.0635 2.48047 10.751V10.7822C2.48047 12.9489 4.02214 14.7614 6.06383 15.1676C5.40833 15.347 4.72015 15.372 4.05339 15.2405C4.33631 16.1285 4.8904 16.9056 5.63778 17.4623C6.38518 18.0191 7.28823 18.3277 8.22008 18.3447C6.64048 19.5952 4.68255 20.2711 2.66797 20.2614C2.3138 20.2614 1.95964 20.2405 1.60547 20.1989C3.58464 21.4697 5.93883 22.2093 8.45963 22.2093C16.668 22.2093 21.1784 15.3968 21.1784 9.49054C21.1784 9.29264 21.1784 9.10514 21.168 8.90724C22.043 8.28224 22.793 7.49054 23.3971 6.58429Z"/>
</g>
</svg>
